<svg xmlns="http://www.w3.org/2000/svg" width="842" height="598" viewBox="0 0 842 598" fill="none">
<path d="M422.185 333.92L411.415 323.15L422.185 312.38L432.954 323.15L422.185 333.92ZM422.185 463.12L282.223 323.15L422.185 183.18L562.146 323.15L422.185 463.12ZM303.752 323.15L422.185 441.59L540.618 323.15L422.185 204.71L303.752 323.15ZM422.185 420.05L325.291 323.15L422.185 226.25L519.079 323.15L422.185 420.05ZM346.819 323.15L422.185 398.52L497.55 323.15L422.185 247.78L346.819 323.15ZM422.185 376.98L368.358 323.15L422.185 269.32L476.012 323.15L422.185 376.98ZM389.887 323.15L422.185 355.45L454.483 323.15L422.185 290.85L389.887 323.15ZM131.502 21.6801L120.733 10.91L109.963 21.6801L120.733 32.45L131.502 21.6801ZM120.733 75.51L66.896 21.6801L120.723 -32.15L174.55 21.6801L120.723 75.51H120.733ZM88.4347 21.6801L120.733 53.98L153.031 21.6801L120.733 -10.62L88.4347 21.6801ZM120.733 118.58L23.8386 21.6801L120.733 -75.22L217.627 21.6801L120.733 118.58ZM45.3673 21.6801L120.733 97.05L196.098 21.6801L120.733 -53.6899L45.3673 21.6801ZM120.733 161.65L-19.2289 21.6801L120.733 -118.29L260.694 21.6801L120.733 161.65ZM2.29984 21.6801L120.733 140.12L239.166 21.6801L120.733 -96.7599L2.29984 21.6801ZM712.878 624.63L723.647 635.4L734.416 624.63L723.647 613.86L712.878 624.63ZM723.647 484.66L863.609 624.63L723.647 764.6L583.685 624.63L723.647 484.66ZM842.08 624.63L723.647 506.19L605.214 624.63L723.647 743.07L842.08 624.63ZM723.647 570.8L777.474 624.63L723.647 678.46L669.82 624.63L723.647 570.8ZM755.945 624.63L723.647 592.33L691.349 624.63L723.647 656.93L755.945 624.63ZM723.647 527.73L820.541 624.63L723.647 721.53L626.753 624.63L723.647 527.73ZM799.012 624.63L723.647 549.26L648.281 624.63L723.647 700L799.012 624.63ZM260.734 473.86L271.504 484.63L282.273 473.86L271.504 463.09L260.734 473.86ZM271.504 376.96L368.398 473.86L271.504 570.76L174.61 473.86L271.504 376.96ZM346.869 473.86L271.504 398.49L196.138 473.86L271.504 549.23L346.869 473.86ZM271.504 333.89L411.466 473.86L271.504 613.83L131.542 473.86L271.504 333.89ZM389.937 473.86L271.504 355.42L153.071 473.86L271.504 592.3L389.937 473.86ZM271.504 420.03L325.331 473.86L271.504 527.69L217.677 473.86L271.504 420.03ZM303.802 473.86L271.504 441.56L239.206 473.86L271.504 506.16L303.802 473.86ZM-19.1989 172.38L-29.9682 161.61L-40.7376 172.38L-29.9682 183.15L-19.1989 172.38ZM-29.9682 269.28L-126.862 172.38L-29.9583 75.48L66.936 172.38L-29.9583 269.28H-29.9682ZM-105.334 172.38L-29.9583 247.75L45.4073 172.38L-29.9583 97.0101L-105.324 172.38H-105.334ZM-29.9583 226.22L-83.785 172.39L-29.9583 118.55L23.8686 172.38L-29.9583 226.21V226.22ZM-62.2563 172.39L-29.9583 204.69L2.33984 172.38L-29.9583 140.08L-62.2563 172.38V172.39ZM-29.9583 312.35L-169.92 172.38L-29.9583 32.41L110.003 172.38L-29.9583 312.35ZM-148.391 172.38L-29.9583 290.82L88.4747 172.38L-29.9583 53.9401L-148.391 172.38ZM562.187 775.33L572.956 786.1L583.725 775.33L572.956 764.56L562.187 775.33ZM572.956 678.43L669.85 775.33L572.956 872.23L476.062 775.33L572.956 678.43ZM648.321 775.33L572.956 699.96L497.59 775.33L572.956 850.7L648.321 775.33ZM572.956 721.5L626.783 775.33L572.956 829.16L519.129 775.33L572.956 721.5ZM605.254 775.33L572.956 743.03L540.658 775.33L572.956 807.63L605.254 775.33ZM572.956 635.36L712.918 775.33L572.956 915.3L432.994 775.33L572.956 635.36ZM691.389 775.33L572.956 656.89L454.523 775.33L572.956 893.77L691.389 775.33ZM131.572 624.56L120.803 613.79L110.033 624.56L120.803 635.33L131.572 624.56ZM120.803 721.46L23.9085 624.56L120.803 527.66L217.697 624.56L120.803 721.46ZM45.4373 624.56L120.803 699.93L196.168 624.56L120.803 549.19L45.4373 624.56ZM120.803 678.39L66.976 624.56L120.803 570.73L174.63 624.56L120.803 678.39ZM88.5047 624.56L120.803 656.86L153.101 624.56L120.803 592.26L88.5047 624.56ZM120.803 764.53L-19.1589 624.56L120.803 484.59L260.765 624.56L120.803 764.53ZM2.36984 624.56L120.803 743L239.236 624.56L120.803 506.12L2.36984 624.56ZM-169.89 323.08L-180.659 312.31L-191.429 323.08L-180.659 333.85L-169.89 323.08ZM-180.659 376.91L-234.486 323.08L-180.659 269.25L-126.832 323.08L-180.659 376.91ZM-212.957 323.08L-180.659 355.38L-148.361 323.08L-180.659 290.78L-212.957 323.08ZM-180.659 419.98L-277.554 323.08L-180.659 226.18L-83.765 323.08L-180.659 419.98ZM-256.025 323.08L-180.659 398.45L-105.294 323.08L-180.659 247.71L-256.025 323.08ZM-180.659 463.05L-320.621 323.08L-180.649 183.11L-40.6876 323.08L-180.649 463.05H-180.659ZM-299.092 323.08L-180.659 441.52L-62.2263 323.08L-180.659 204.64L-299.092 323.08ZM411.496 926.03L422.265 936.8L433.034 926.03L422.265 915.26L411.496 926.03ZM422.265 829.13L519.159 926.03L422.265 1022.93L325.371 926.03L422.265 829.13ZM497.63 926.03L422.265 850.66L346.899 926.03L422.265 1001.4L497.63 926.03ZM422.265 872.2L476.092 926.03L422.265 979.86L368.438 926.03L422.265 872.2ZM454.563 926.03L422.265 893.73L389.967 926.03L422.265 958.33L454.563 926.03ZM422.265 786.06L562.227 926.03L422.265 1066L282.303 926.03L422.265 786.06ZM540.698 926.03L422.265 807.59L303.832 926.03L422.265 1044.47L540.698 926.03ZM583.665 172.44L572.896 161.67L562.127 172.44L572.896 183.21L583.665 172.44ZM572.896 269.34L476.002 172.44L572.896 75.54L669.79 172.44L572.896 269.34ZM497.53 172.44L572.896 247.81L648.261 172.44L572.896 97.0701L497.53 172.44ZM572.896 226.27L519.069 172.44L572.896 118.61L626.723 172.44L572.896 226.27ZM540.598 172.44L572.896 204.74L605.194 172.44L572.896 140.14L540.598 172.44ZM572.896 312.41L432.934 172.44L572.886 32.47L712.848 172.44L572.886 312.41H572.896ZM454.463 172.44L572.896 290.88L691.329 172.44L572.896 54.0001L454.463 172.44ZM282.203 -129.03L271.434 -139.8L260.664 -129.03L271.434 -118.26L282.203 -129.03ZM271.434 -75.2L217.607 -129.03L271.434 -182.86L325.261 -129.03L271.434 -75.2ZM239.136 -129.03L271.434 -96.7299L303.732 -129.03L271.434 -161.33L239.136 -129.03ZM271.434 -32.1299L174.54 -129.03L271.434 -225.93L368.328 -129.03L271.434 -32.1299ZM196.068 -129.03L271.434 -53.6599L346.799 -129.03L271.434 -204.4L196.068 -129.03ZM271.434 10.94L131.472 -129.03L271.434 -269L411.396 -129.03L271.434 10.94ZM153.001 -129.03L271.434 -10.59L389.867 -129.03L271.434 -247.47L153.001 -129.03ZM863.579 473.92L874.348 484.69L885.117 473.92L874.348 463.15L863.579 473.92ZM874.348 333.95L1014.31 473.92L874.348 613.89L734.386 473.92L874.348 333.95ZM992.781 473.92L874.348 355.48L755.915 473.92L874.348 592.36L992.781 473.92ZM874.348 420.09L928.175 473.92L874.348 527.75L820.521 473.92L874.348 420.09ZM906.646 473.92L874.348 441.62L842.05 473.92L874.348 506.22L906.646 473.92ZM874.348 377.02L971.242 473.92L874.348 570.82L777.454 473.92L874.348 377.02ZM949.714 473.92L874.348 398.55L798.983 473.92L874.348 549.29L949.714 473.92ZM734.356 21.73L723.587 10.9601L712.818 21.73L723.587 32.5001L734.356 21.73ZM723.587 75.5601L669.76 21.73L723.587 -32.0999L777.414 21.73L723.587 75.5601ZM691.289 21.73L723.587 54.03L755.885 21.73L723.587 -10.5699L691.289 21.73ZM723.587 161.7L583.625 21.73L723.587 -118.24L863.559 21.73L723.597 161.7H723.587ZM605.164 21.73L723.597 140.17L842.03 21.73L723.597 -96.71L605.164 21.73ZM723.597 118.63L626.703 21.73L723.597 -75.17L820.491 21.73L723.597 118.63ZM648.232 21.73L723.597 97.1L798.963 21.73L723.597 -53.64L648.232 21.73ZM432.904 -279.74L422.135 -290.51L411.366 -279.74L422.135 -268.97L432.904 -279.74ZM422.135 -182.84L325.241 -279.74L422.135 -376.64L519.029 -279.74L422.135 -182.84ZM346.769 -279.74L422.135 -204.37L497.5 -279.74L422.135 -355.11L346.769 -279.74ZM422.135 -225.91L368.308 -279.74L422.135 -333.57L475.962 -279.74L422.135 -225.91ZM389.837 -279.74L422.135 -247.44L454.433 -279.74L422.135 -312.04L389.837 -279.74ZM422.135 -139.77L282.173 -279.74L422.135 -419.71L562.097 -279.74L422.135 -139.77ZM303.702 -279.74L422.135 -161.3L540.568 -279.74L422.135 -398.18L303.702 -279.74ZM1025.05 312.44L1014.28 323.21L1025.05 333.98L1035.82 323.21L1025.05 312.44ZM1078.88 323.21L1025.05 377.04L971.222 323.21L1025.05 269.38L1078.88 323.21ZM1025.05 355.51L1057.35 323.21L1025.05 290.91L992.751 323.21L1025.05 355.51ZM1121.94 323.21L1025.05 420.11L928.155 323.21L1025.05 226.31L1121.94 323.21ZM1025.05 398.58L1100.41 323.21L1025.05 247.84L949.684 323.21L1025.05 398.58ZM1165.01 323.21L1025.05 463.18L885.087 323.21L1025.05 183.24L1165.01 323.21ZM1025.05 441.65L1143.48 323.21L1025.05 204.77L906.616 323.21L1025.05 441.65ZM752.025 -189.74L-164.84 727.18L-154.071 737.95L762.795 -178.98L752.025 -189.75V-189.74ZM730.497 -211.27L-186.379 705.65L-175.61 716.42L741.266 -200.51L730.497 -211.28V-211.27ZM708.968 -232.8L-207.908 684.12L-197.138 694.89L719.727 -222.04L708.958 -232.81L708.968 -232.8ZM687.439 -254.33L-229.446 662.58L-218.677 673.35L698.198 -243.58L687.429 -254.35L687.439 -254.33ZM665.91 -275.86L-250.975 641.05L-240.206 651.82L676.66 -265.11L665.89 -275.88L665.91 -275.86ZM644.382 -297.39L-272.504 619.51L-261.734 630.28L655.131 -286.65L644.362 -297.42L644.382 -297.39ZM622.853 -318.92L-294.043 597.98L-283.273 608.75L633.602 -308.18L622.833 -318.95L622.853 -318.92ZM1053.49 111.73L136.612 1028.66L147.381 1039.43L1064.26 122.5L1053.49 111.73ZM1031.96 90.2L115.083 1007.13L125.853 1017.9L1042.72 100.96L1031.95 90.1901L1031.96 90.2ZM1010.43 68.67L93.5444 985.59L104.314 996.36L1021.19 79.4301L1010.42 68.66L1010.43 68.67ZM988.901 47.14L72.0157 964.06L82.785 974.83L999.651 57.9001L988.881 47.13L988.901 47.14ZM967.372 25.61L50.487 942.52L61.2563 953.29L978.122 36.36L967.353 25.5901L967.372 25.61ZM945.844 4.08005L28.9482 920.99L39.7176 931.76L956.593 14.83L945.824 4.06006L945.844 4.08005ZM924.315 -17.45L7.41953 899.46L18.1889 910.23L935.054 -6.70996L924.285 -17.4799L924.315 -17.45Z" fill="#EDEDED"/>
</svg>