<svg xmlns="http://www.w3.org/2000/svg" width="96" height="52" viewBox="0 0 96 52" fill="none">
<path d="M0.0276489 33.0385C0.327649 32.8285 0.387666 32.5385 0.357666 32.1985C0.297666 31.6385 0.287683 31.0685 0.187683 30.5085C0.0976831 30.0385 0.147671 29.5885 0.237671 29.1385C0.537671 27.7185 0.887666 26.3185 1.35767 24.9385C2.24767 22.3085 3.74768 20.0585 5.36768 17.8485C6.18768 16.7285 7.07766 15.6785 8.09766 14.7385C8.27766 14.5685 8.44766 14.3785 8.59766 14.1885C9.33766 13.2285 10.2076 12.3985 11.1476 11.6285C11.9976 10.9385 12.8577 10.2585 13.7177 9.57848C13.9677 9.37848 14.2476 9.21848 14.5176 9.04848C14.6976 8.93849 14.9077 8.85847 15.0677 8.71847C16.5777 7.40847 18.3376 6.47847 20.0776 5.52847C21.0376 4.99847 22.0177 4.48847 23.0377 4.06847C24.6177 3.42847 26.2176 2.84846 27.8276 2.30846C29.8176 1.63846 31.8977 1.35846 33.9277 0.838463C34.0277 0.808463 34.1377 0.778465 34.2377 0.778465C35.3877 0.798465 36.4877 0.488484 37.6077 0.328484C39.4077 0.0684838 41.2176 0.108486 43.0176 0.0184862C44.6976 -0.0715138 46.3477 0.188463 47.9977 0.338463C49.5577 0.488463 51.0676 0.868481 52.4576 1.63848C52.9876 1.92848 53.5377 2.17847 54.0677 2.46847C54.9477 2.95847 55.7076 3.57849 56.2776 4.42849C56.5877 4.89849 56.9977 5.29847 57.3477 5.74847C58.3477 7.04847 59.1477 8.46847 59.9077 9.90847C60.3677 10.7785 60.8076 11.6785 61.1476 12.6085C61.5676 13.7385 61.8677 14.9085 62.2377 16.0585C62.7077 17.5485 62.9177 19.0985 63.2977 20.6085C63.3777 20.9385 63.3677 21.3085 63.6677 21.6485C63.9177 21.4185 64.1477 21.2085 64.3777 21.0085C64.6077 20.8085 64.8777 20.6985 65.1677 20.8285C65.7077 21.0685 66.2177 20.9185 66.7177 20.7685C67.2277 20.6185 67.7277 20.4285 68.2377 20.2685C69.1177 19.9885 69.9977 19.7285 70.8677 19.4285C71.7777 19.1185 72.6577 18.7585 73.5677 18.4585C74.8177 18.0485 76.0776 17.6885 77.3276 17.2885C77.8976 17.0985 78.4377 16.8285 79.0077 16.6385C80.5977 16.1185 82.1877 15.6485 83.7776 15.1285C86.2477 14.3385 88.7577 13.6985 91.2877 13.1485C92.4277 12.9085 93.6076 12.8585 94.7676 12.7385C94.9776 12.7185 95.1976 12.7685 95.3976 12.8185C95.6876 12.8885 95.9377 13.0385 95.9677 13.3685C96.0077 13.7085 95.7877 13.8785 95.4477 14.0185C95.2577 13.9085 95.0676 13.7185 94.8376 13.6885C94.5276 13.6385 94.1976 13.6585 93.8876 13.7085C92.7676 13.9085 91.6577 14.0785 90.5677 14.4485C89.8677 14.6885 89.1176 14.7985 88.3976 14.9685C88.0176 15.0585 87.6277 15.1285 87.2577 15.2385C86.2077 15.5585 85.1677 15.9185 84.1277 16.2385C83.6577 16.3785 83.1677 16.4685 82.7577 16.7885C82.6577 16.8685 82.4977 16.8885 82.3577 16.9085C81.0477 17.0885 79.8077 17.5485 78.6077 18.0685C77.7577 18.4485 76.8577 18.6485 75.9977 18.9585C74.9277 19.3485 73.8577 19.6885 72.7877 20.0785C72.1577 20.3085 71.5477 20.5885 70.8577 20.6185C70.6177 20.6285 70.3577 20.7185 70.1577 20.8385C69.7777 21.0785 69.4077 21.2785 68.9277 21.3085C68.4377 21.3385 68.1576 21.8185 68.2076 22.3185C68.2276 22.4985 68.2677 22.6685 68.3177 22.8385C68.6977 24.2385 69.0377 25.6585 69.4877 27.0385C69.8577 28.1485 70.2576 29.2385 70.8376 30.2785C71.2576 31.0285 71.7077 31.7385 72.1877 32.4385C72.5277 32.9285 72.9777 33.1185 73.5377 33.1285C75.1277 33.1485 76.4476 32.5685 77.3876 31.2585C77.8576 30.5985 78.2777 29.8985 78.6877 29.1885C78.8877 28.8385 78.7776 28.5885 78.3876 28.4285C78.0276 28.2785 77.6577 28.1685 77.2877 28.0385C77.0577 27.9585 76.8377 27.8785 76.5377 27.7685C76.8177 27.5085 77.0576 27.5985 77.2776 27.6485C77.6976 27.7385 78.0977 27.8885 78.5077 27.9785C78.9877 28.0885 79.2477 27.9485 79.4177 27.4785C79.5677 27.0785 79.7076 26.6685 79.7676 26.2485C79.9176 25.2685 80.0377 24.2885 80.3777 23.3485C80.4277 23.1985 80.4077 22.9885 80.3577 22.8285C80.1177 22.1285 79.8277 21.4485 79.5977 20.7385C79.4177 20.1985 79.2777 19.6485 79.8577 19.2085C80.0077 19.0985 80.0476 18.8385 80.1376 18.6485C80.5076 17.8885 81.1277 17.8285 81.5677 18.5585C81.8377 19.0085 82.0276 19.5085 82.2177 20.0085C82.4677 20.7085 82.6777 21.4185 82.9177 22.1285C83.3277 23.3385 83.6676 24.5685 84.2177 25.7285C84.3476 26.0085 84.3177 26.3585 84.4277 26.6585C84.6877 27.3885 84.9776 28.1185 85.2776 28.8385C85.4377 29.2285 85.6777 29.5985 85.6577 30.0385C85.6477 30.3985 85.4376 30.6885 85.0876 30.6785C84.7076 30.6785 84.2877 30.6585 83.9477 30.5185C83.4177 30.2885 82.8777 30.1585 82.3177 30.0485C81.7477 29.9385 81.2477 29.7185 80.7877 29.3585C80.1977 28.8985 79.6676 28.9885 79.2676 29.6085C78.8876 30.1985 78.4377 30.7585 78.4377 31.5385C78.4377 31.7285 78.2877 31.9385 78.1677 32.0985C77.8077 32.5785 77.4277 33.0485 77.0477 33.5185C76.9577 33.6285 76.8476 33.7385 76.7177 33.7885C76.0777 34.0385 75.5877 34.5085 75.0677 34.9385C74.1877 35.6585 73.2377 35.6685 72.2877 35.1485C71.6977 34.8185 71.1176 34.6785 70.4576 34.7985C69.5476 34.9585 68.6377 35.0785 67.7277 35.2185C67.2377 35.2985 66.7477 35.3885 66.2577 35.4685C65.7877 35.5485 65.4576 35.6985 65.2076 36.1985C64.8276 36.9485 64.2876 37.6285 63.5176 38.0585C63.3976 38.1285 63.2577 38.1985 63.1777 38.3085C62.7377 38.8985 62.1077 39.0785 61.4377 39.2185C60.9577 39.3185 60.4276 39.3785 60.0176 39.6185C59.0776 40.1585 58.0976 40.6485 57.2676 41.3785C56.5276 42.0285 55.6876 42.5685 54.8976 43.1585C54.7276 43.2885 54.4876 43.3785 54.3976 43.5385C54.1376 44.0585 53.6977 44.1685 53.1877 44.2885C52.6377 44.4185 52.1176 44.6585 51.5876 44.8485C50.5476 45.2285 49.5077 45.5185 48.3777 45.5185C47.4577 45.5185 46.5377 45.6385 45.6177 45.6785C45.1277 45.6985 44.6277 45.6285 44.1277 45.6385C43.2177 45.6585 43.0476 45.7885 42.7676 46.6785C42.3176 48.1085 41.6977 49.4585 40.9077 50.7285C40.8177 50.8785 40.7277 51.0385 40.6177 51.1785C40.2977 51.5685 39.8377 51.7085 39.3777 51.4885C39.0977 51.3485 38.8376 51.1485 38.5876 50.9485C38.3376 50.7485 38.1377 50.4785 37.8777 50.3085C37.2977 49.9085 36.9277 49.3785 36.6777 48.7285C36.5777 48.4685 36.3777 48.2585 36.2177 48.0285C36.0777 47.8285 35.8877 47.6485 35.7877 47.4285C35.5677 46.9085 35.1777 46.5485 34.7177 46.2785C34.3077 46.0485 33.9677 45.7485 33.6277 45.4485C33.3377 45.1885 33.0077 44.9785 32.6877 44.7485C32.0777 44.3185 31.4577 44.2185 30.6877 44.4385C28.6177 45.0585 26.4976 45.4785 24.3376 45.7485C22.7076 45.9485 21.0876 46.0585 19.4576 45.9385C17.5176 45.7885 15.5777 45.5485 13.6677 45.2085C11.8777 44.8985 10.1476 44.3685 8.51764 43.5685C7.69764 43.1685 6.92766 42.6385 6.16766 42.1185C4.86766 41.2285 3.78763 40.0885 2.88763 38.8085C2.32763 38.0085 1.78766 37.1585 1.47766 36.2085C1.38766 35.9385 1.30769 35.6585 0.947693 35.5785M0.307678 34.3685C0.587678 34.0885 0.567673 34.0485 0.427673 33.4885L0.307678 34.3685ZM50.5477 31.9085C51.5377 31.7485 52.4777 31.4185 53.3477 30.9285C53.7277 30.7085 54.0677 30.6785 54.4277 30.9485C54.5577 31.0485 54.7276 31.0985 54.8876 31.1685C55.0776 31.0585 55.2377 30.9785 55.3677 30.8685C55.8377 30.4885 56.2677 30.0685 56.7477 29.6985C58.2477 28.5585 59.5476 27.1885 60.8876 25.8785C61.2376 25.5385 61.5376 25.1285 61.8376 24.7285C61.9676 24.5685 62.0577 24.3685 62.1277 24.1685C62.2177 23.9085 61.9776 23.6385 61.7177 23.7185C61.5177 23.7785 61.3277 23.8685 61.1277 23.9485C60.8677 24.0485 60.5976 24.1385 60.3376 24.2285C60.0376 24.3285 59.7477 24.4285 59.4477 24.5385C59.2477 24.6085 59.0577 24.6985 58.8577 24.7585C58.3877 24.8985 57.8677 24.9585 57.4377 25.1885C56.3677 25.7485 55.1976 26.0385 54.0776 26.4685C54.0476 26.4785 54.0077 26.4985 53.9777 26.5085C53.3577 26.7985 52.8377 27.2085 52.4277 27.7685C51.8477 28.5685 51.2277 29.3485 50.6277 30.1385C50.4377 30.3885 50.2676 30.6485 50.0876 30.8985C50.2676 31.2785 50.4177 31.5985 50.5577 31.9085C50.0677 31.7285 49.5877 31.8285 49.1177 32.0085C48.9077 32.0885 48.6677 32.1785 48.6277 32.5685L50.5377 31.8885L50.5477 31.9085ZM30.9477 37.7785C30.3377 36.7585 29.7976 35.8085 29.2076 34.8785C28.3276 33.4785 27.7177 31.9685 27.3177 30.3885C26.9277 28.8485 26.5776 27.2885 26.3976 25.6885C26.2276 24.1585 26.2677 22.6385 26.3677 21.1285C26.4877 19.2585 26.7077 17.3885 27.0977 15.5385C27.2477 14.8485 27.2777 14.1285 27.4377 13.4385C27.5877 12.7885 27.8477 12.1585 28.0477 11.5185C28.4877 10.0985 29.2577 8.87847 30.3177 7.84847C30.7677 7.40847 31.2677 6.95848 31.8177 6.66848C33.2977 5.88848 34.8577 5.29846 36.5377 5.08846C37.2677 4.99846 37.9577 5.05848 38.6277 5.32848C40.2777 6.00848 41.6577 7.05848 42.5477 8.60848C42.9477 9.29848 43.1077 10.1285 43.3477 10.9085C43.3777 10.9885 43.2477 11.1285 43.1677 11.2785C43.0377 11.1385 42.9277 11.0785 42.9077 10.9885C42.8277 10.5785 42.6177 10.2785 42.2577 10.0685C42.0277 9.93847 41.9276 9.70848 41.8876 9.44848C41.8276 9.09848 41.7677 8.75848 41.6977 8.35848C40.8577 8.15848 40.1876 7.65846 39.5176 7.11846C38.8476 6.57846 38.0577 6.29847 37.1677 6.24847C35.8177 6.17847 34.5677 6.54848 33.3477 7.04848C32.8977 7.23848 32.4876 7.53847 32.0876 7.81847C31.1076 8.50847 30.4077 9.43847 29.8777 10.4985C29.6877 10.8785 29.4877 11.2585 29.3477 11.6485C28.9077 12.8885 28.5977 14.1485 28.3677 15.4485C28.0577 17.1985 27.9177 18.9685 27.7477 20.7285C27.5177 23.1085 27.6877 25.4785 28.1977 27.8185C28.3677 28.5785 28.5177 29.3385 28.7377 30.0885C29.4377 32.5485 30.7076 34.7085 32.0876 36.8185C32.3276 37.1885 32.6476 37.3585 33.0776 37.2185C33.7576 37.0085 34.4377 36.8085 35.1077 36.5885C35.5477 36.4485 35.9677 36.2585 36.4177 36.1285C38.3977 35.5585 40.3777 35.0085 42.3577 34.4485C42.5277 34.3985 42.6977 34.3485 42.8677 34.2885C43.1977 34.1685 43.3977 33.9285 43.4277 33.5785C43.4977 32.7185 43.3677 32.4485 42.4677 32.5285C40.5177 32.6985 38.5777 32.8485 36.6777 33.3285C36.5077 33.3685 36.3277 33.4085 36.1577 33.4185C35.7177 33.4385 35.3176 33.1585 35.2676 32.8185C35.2276 32.5485 35.4177 32.2885 35.8177 32.1185C36.5377 31.8185 37.2477 31.4685 37.9977 31.2685C39.4777 30.8685 40.8776 30.2785 42.2776 29.6785C42.5076 29.5785 42.7277 29.4685 42.9477 29.3585C43.3077 29.1885 43.4577 28.8985 43.4677 28.5085C43.5077 27.2685 43.5677 26.0285 43.6077 24.7885C43.6377 23.7285 43.6877 22.6685 43.8477 21.6085C44.1177 19.7785 44.3577 17.9485 45.0477 16.2285C45.0977 16.0985 45.1277 15.9585 45.1677 15.8185C45.8477 13.7585 46.6877 11.7685 48.1077 10.0985C48.4277 9.71847 48.7777 9.36847 49.1677 9.06847C49.6577 8.69847 50.0976 8.30846 50.4576 7.80846C51.1276 6.86846 52.0376 6.33848 53.1476 6.03848C53.9076 5.83848 54.4977 5.97849 54.9677 6.51849C55.5277 7.15849 55.9877 7.87848 56.2477 8.69848C56.4977 9.50848 56.5977 10.3585 56.7977 11.1785C57.1677 12.7285 57.1477 14.2785 56.9777 15.8285C56.8477 16.9885 56.5377 18.1285 56.2577 19.2585C56.0777 19.9785 55.8276 20.6785 55.5776 21.3785C55.3976 21.8785 55.1677 22.3585 54.9677 22.8485C54.7777 23.3085 54.5677 23.7585 54.4177 24.2285C54.3577 24.3985 54.4177 24.6185 54.4377 24.8385C54.6177 24.8385 54.7277 24.8685 54.8177 24.8385C57.1577 24.0185 59.4976 23.1885 61.8376 22.3485C61.9276 22.3185 62.0076 22.2285 62.1476 22.1185C62.0776 21.4485 62.0277 20.7385 61.9277 20.0485C61.8577 19.5185 61.7577 18.9985 61.6177 18.4885C61.1477 16.8585 60.6177 15.2385 60.1577 13.5985C59.6677 11.8785 58.7777 10.3485 57.9277 8.78848C57.7977 8.54848 57.6077 8.31846 57.4077 8.11846C57.0977 7.81846 56.8677 7.46846 56.6677 7.08846C55.8077 5.49846 54.4477 4.25849 52.7877 3.45849C52.6377 3.38849 52.5177 3.23848 52.3677 3.13848C52.1077 2.95848 51.8477 2.77846 51.5677 2.61846C51.2877 2.46846 50.9777 2.36849 50.6977 2.20849C50.3977 2.03849 50.1577 1.78846 49.7477 1.80846C49.2677 1.82846 49.1577 2.25848 48.8177 2.50848C48.4877 2.37848 48.1576 2.25847 47.8376 2.12847C47.6776 2.05847 47.5077 1.99849 47.3677 1.89849C46.4077 1.19849 45.3277 0.968474 44.1677 1.06847C43.9877 1.07847 43.8076 1.09847 43.6376 1.06847C43.0676 0.928474 42.5177 0.978474 41.9477 1.06847C41.5677 1.11847 41.1676 1.13846 40.7776 1.11846C39.5976 1.05846 38.4376 1.13847 37.2776 1.34847C36.5476 1.47847 35.8077 1.62847 35.0677 1.68847C32.7177 1.88847 30.4676 2.51847 28.2076 3.12847C27.7676 3.24847 27.3477 3.45847 26.9077 3.59847C25.2177 4.14847 23.5777 4.79848 21.9777 5.57848C21.1477 5.97848 20.3276 6.39848 19.5276 6.85848C18.5776 7.40848 17.6577 8.00848 16.7277 8.60848C16.1277 8.98848 15.4977 9.33846 14.9777 9.80846C13.4977 11.1285 11.8777 12.2785 10.4777 13.6985C9.48766 14.7085 8.44767 15.6785 7.54767 16.7685C6.44767 18.1085 5.31766 19.4385 4.47766 20.9685C3.81766 22.1785 3.10764 23.3685 2.76764 24.7285C2.68764 25.0485 2.67765 25.3385 2.71765 25.6685C2.76765 26.1185 2.79765 26.5985 2.71765 27.0385C2.58765 27.8185 2.50764 28.5785 2.57764 29.3685C2.60764 29.6785 2.59764 30.0185 2.51764 30.3185C2.39764 30.8185 2.35769 31.2885 2.50769 31.7885C2.57769 32.0185 2.58765 32.2785 2.58765 32.5285C2.58765 32.8585 2.66765 33.1385 2.83765 33.4385C2.98765 33.7085 3.12768 34.0285 3.11768 34.3285C3.11768 34.5785 2.88768 34.8085 2.74768 35.0785C2.88768 35.5485 2.94768 36.0685 3.18768 36.4885C3.60768 37.2285 4.10768 37.9185 4.61768 38.5885C5.32768 39.5285 6.20767 40.2985 7.10767 41.0585C7.64767 41.5085 8.23768 41.9385 8.86768 42.2285C9.98768 42.7585 11.1577 43.1885 12.3177 43.6385C12.6777 43.7785 13.0677 43.8585 13.4477 43.9185C15.0977 44.1785 16.7376 44.4685 18.3876 44.6585C19.7976 44.8185 21.2277 44.9985 22.6277 44.9185C24.9977 44.7785 27.3476 44.3485 29.6476 43.7285C29.7376 43.7085 29.8077 43.6085 29.9077 43.5385C29.8477 43.4285 29.8277 43.3085 29.7577 43.2585C29.3777 42.9885 28.9876 42.7785 28.5276 42.6585C27.5976 42.4285 26.6777 42.1685 25.7577 41.8885C24.7377 41.5785 23.7177 41.2985 22.6277 41.3985C22.0877 41.4485 21.5676 41.2785 21.0876 41.0485C20.7376 40.8785 20.7277 40.3985 21.0477 40.1685C21.1377 40.1085 21.2276 40.0385 21.3276 40.0185C21.8776 39.8885 22.4277 39.8085 22.9077 39.4285C23.0777 39.2985 23.3777 39.3285 23.6277 39.3085C24.0477 39.2685 24.4776 39.1785 24.8976 39.2185C25.4976 39.2685 25.9877 38.9085 26.5477 38.8885C27.9177 38.8385 29.1677 38.2885 30.4877 38.0185C30.6177 37.9885 30.7377 37.8885 30.9777 37.7585L30.9477 37.7785ZM45.0677 28.2985C45.5077 28.4585 45.8476 28.2385 46.2076 28.1085C47.1976 27.7285 48.1777 27.3085 49.1877 26.9785C49.7577 26.7885 50.3377 26.6385 50.8677 26.3485C51.1177 26.2085 51.3776 26.0885 51.6476 26.0185C52.3276 25.8685 52.7576 25.4085 53.0876 24.8485C53.3376 24.4185 53.6177 23.9985 53.7977 23.5385C54.3177 22.2185 54.8576 20.9185 55.2676 19.5485C56.0376 16.9985 56.2977 14.4085 56.1177 11.7685C56.0677 11.0985 55.8877 10.4385 55.7277 9.78848C55.5977 9.24848 55.4376 9.10848 54.8876 8.82848C54.8876 8.93848 54.8877 9.03848 54.8577 9.13848C54.7777 9.47848 54.5777 9.57849 54.3577 9.39849C54.2977 9.35849 54.2577 9.29848 54.1977 9.25848C53.3177 8.47848 52.7876 8.41847 51.8276 9.02847C51.5376 9.20847 51.3077 9.49848 51.0477 9.72848C50.4777 10.2485 49.9876 10.8785 49.1376 10.9885C48.7176 11.0485 48.4276 11.3585 48.2676 11.7085C47.8476 12.5685 47.4577 13.4385 47.1077 14.3285C46.8277 15.0585 46.7076 15.8485 46.3876 16.5485C46.1176 17.1385 45.9576 17.6585 46.3376 18.2385C46.1776 18.5085 46.0076 18.7385 45.8976 18.9985C45.7876 19.2485 45.7777 19.5485 45.6777 19.7985C45.4777 20.2985 45.3477 20.7985 45.3077 21.3385C45.1677 23.1385 44.9876 24.9385 44.8376 26.7385C44.7976 27.2685 44.8276 27.7985 45.0776 28.2785L45.0677 28.2985ZM57.8577 39.3885C57.1777 38.8785 56.5977 38.4285 55.9977 37.9985C55.8377 37.8885 55.6076 37.8385 55.3976 37.8285C55.1176 37.8185 54.8177 37.8185 54.5477 37.8985C53.3677 38.2685 52.1776 38.6385 51.0176 39.0685C50.4176 39.2885 49.8777 39.6585 49.2877 39.8685C48.7277 40.0685 48.1176 40.1485 47.5276 40.2685C47.2876 40.3185 47.0377 40.3385 46.7877 40.3385C46.3377 40.3385 46.0877 39.9285 46.2776 39.5185C46.3676 39.3285 46.5177 39.1685 46.6277 38.9885C46.8777 38.5985 47.1677 38.2285 47.3477 37.8085C47.6377 37.1385 48.1076 36.7285 48.7676 36.4785C48.9976 36.3885 49.2377 36.2885 49.4177 36.1285C50.0177 35.5785 50.6477 35.0385 51.1677 34.4185C51.5877 33.9185 52.0277 33.4885 52.5577 33.1185C53.0277 32.7885 53.1876 32.5185 53.0276 32.4085C52.7176 32.2085 52.5077 32.5185 52.2477 32.5985C50.8477 32.9985 49.4577 33.4285 48.0677 33.8385C47.4777 34.0085 46.9377 34.2585 46.4777 34.6685C46.1077 34.9985 45.7477 35.3485 45.3677 35.6585C44.9777 35.9685 44.8076 36.3685 44.7776 36.8585C44.7176 37.6385 44.5977 38.4085 44.5577 39.1885C44.5177 40.0485 44.3277 40.8685 44.0677 41.6885C43.8477 42.3585 43.6777 43.0485 43.5077 43.7385C43.4077 44.1585 43.6077 44.4085 44.0577 44.4485C44.4077 44.4785 44.7677 44.4885 45.1177 44.4885C45.9677 44.4885 46.8177 44.4385 47.6677 44.4885C48.0977 44.5085 48.5077 44.4885 48.9277 44.3985C51.1977 43.8985 53.3176 42.9885 55.2676 41.7585C56.0676 41.2585 56.7277 40.5285 57.4377 39.8885C57.5677 39.7785 57.6576 39.6185 57.8376 39.3985L57.8577 39.3885ZM56.2377 36.0085C56.3677 36.0285 56.4776 36.0885 56.5776 36.0685C57.7476 35.8185 58.9277 35.5585 60.0977 35.2785C60.2977 35.2285 60.5376 35.1385 60.6476 34.9885C61.1176 34.3385 61.7076 33.7185 61.6376 32.8285C61.5976 32.3985 61.7077 32.0785 62.0377 31.7985C62.1677 31.6885 62.2476 31.5285 62.3276 31.4185C62.1176 30.7185 62.1277 30.7185 62.3077 30.0585C62.3677 29.8185 62.4077 29.5685 62.4177 29.3285C62.4377 28.5185 62.4477 27.6985 62.4477 26.8885C62.4477 26.7285 62.3677 26.5685 62.2977 26.3485C62.0777 26.4585 61.8777 26.4985 61.7877 26.6185C61.0277 27.5485 60.1777 28.3885 59.2377 29.1385C59.2077 29.1585 59.1977 29.1985 59.1677 29.2185C58.7177 29.6085 58.2777 30.0285 57.8077 30.3985C56.9977 31.0385 56.1977 31.6585 55.5377 32.4585C55.2077 32.8585 55.1377 33.2485 55.2477 33.7285C55.4377 34.5685 55.7577 35.3385 56.2577 36.0185L56.2377 36.0085ZM33.7877 43.4385C34.0477 44.6385 34.7576 45.4685 35.7076 46.1685C36.4776 46.7285 37.1977 47.3585 37.9477 47.9585C38.3477 48.2785 38.6377 48.6685 38.6677 49.2085C38.6677 49.3485 38.7076 49.4985 38.7776 49.6085C38.9376 49.8585 39.1877 50.0585 39.4777 49.9985C39.6477 49.9685 39.8277 49.7685 39.9277 49.5985C40.0777 49.3585 40.1176 49.0585 40.2776 48.8285C40.9476 47.8785 41.1777 46.7585 41.4777 45.6785C41.4977 45.6185 41.4477 45.5385 41.4177 45.4085C41.1977 45.3085 40.9577 45.1685 40.6977 45.0785C39.0977 44.5585 37.5977 43.8585 36.2377 42.8685C35.8977 42.6185 35.5377 42.5585 35.1277 42.6485C34.6377 42.7585 34.1677 42.9185 33.7877 43.4285V43.4385ZM43.1077 35.4585C40.0677 36.0085 37.2677 37.2285 34.3177 37.9285C34.0877 37.9885 33.8677 38.1085 33.6677 38.1885C33.5277 38.6185 33.6477 38.9385 33.9177 39.1985C34.4477 39.7185 34.9977 40.2185 35.5377 40.7285C35.7977 40.9685 36.0977 41.0385 36.4177 40.9385C36.7177 40.8485 37.0177 40.7285 37.2977 40.5785C37.6777 40.3785 38.0176 40.1385 38.3976 39.9385C39.0276 39.6085 39.5777 39.1685 40.0577 38.6485C40.3077 38.3885 40.5877 38.1985 40.8777 37.9885C41.5877 37.4685 42.2577 36.8885 42.9277 36.3085C43.1477 36.1185 43.2977 35.8685 43.1077 35.4585ZM64.1376 23.4885C63.9876 23.8885 63.8377 24.2085 63.7377 24.5385C63.6877 24.6985 63.7077 24.8885 63.7177 25.0685C63.7977 26.1685 63.6677 27.2585 63.5477 28.3485C63.4777 28.9485 63.4977 29.5585 63.3777 30.1385C63.1277 31.3885 62.8176 32.6285 62.5276 33.8685C62.4977 34.0085 62.4677 34.1485 62.4477 34.2885C62.4177 34.6185 62.6176 34.8485 62.9576 34.7985C63.3776 34.7485 63.7976 34.6585 64.2076 34.5485C64.8376 34.3585 64.9277 34.2385 64.9677 33.5785C65.0377 32.4485 65.1077 31.3185 65.1577 30.1885C65.2077 29.1285 65.2477 28.0685 65.2977 27.0085C65.3377 26.1585 65.3976 25.3185 65.4576 24.4685C65.4776 24.2185 65.5077 23.9785 65.4977 23.7285C65.4677 23.2885 65.1876 23.1085 64.7676 23.2385C64.5676 23.2985 64.3777 23.3885 64.1277 23.4885H64.1376ZM41.8376 44.0385C41.9476 43.8085 42.0876 43.5985 42.1376 43.3685C42.4976 41.7785 42.8377 40.1885 43.1777 38.5985C43.2177 38.3985 43.2077 38.1785 43.1777 37.9685C43.1577 37.7485 42.8977 37.6285 42.6877 37.7285C42.5977 37.7785 42.4977 37.8285 42.4177 37.8885C40.8177 38.9985 39.2276 40.1185 37.6376 41.2385C37.4576 41.3685 37.3277 41.5785 37.1577 41.7685C37.6977 42.4685 38.4077 42.8185 39.1077 43.1285C39.9677 43.5085 40.7776 44.0785 41.8276 44.0385H41.8376ZM70.4977 33.4685C70.5077 33.2685 70.5377 33.1785 70.5077 33.1385C70.0477 32.4785 69.7976 31.6685 69.1476 31.1385C68.8876 30.9285 68.7977 30.6185 68.7277 30.2985C68.5777 29.5585 68.2177 28.9085 67.8177 28.2785C67.5177 27.7985 67.2277 27.3185 66.9177 26.8385C66.8277 26.6885 66.7177 26.5385 66.4477 26.6585C66.4277 26.7985 66.3976 26.9685 66.3876 27.1385C66.3376 28.0185 66.2977 28.8985 66.2377 29.7785C66.2177 30.1685 66.1076 30.5585 66.1476 30.9385C66.2476 31.9085 66.1577 32.8485 65.9277 33.7885C65.8977 33.9285 65.9777 34.0985 66.0077 34.2985C66.9877 34.1285 67.8877 33.9785 68.7977 33.8185C69.3477 33.7185 69.8977 33.5885 70.4877 33.4685H70.4977ZM53.2877 34.1985C52.9677 34.3685 52.7477 34.4585 52.5477 34.5885C52.0477 34.9185 51.5577 35.2585 51.0577 35.5985C50.7977 35.7785 50.5277 35.9485 50.2577 36.1185C49.9277 36.3385 49.6577 36.6085 49.5477 37.0085C49.4277 37.4285 49.1976 37.7585 48.8276 38.0185C48.6476 38.1385 48.4277 38.3285 48.5577 38.6785C49.0777 38.6285 49.5777 38.4685 50.0577 38.2485C51.1477 37.7485 52.2477 37.2885 53.4477 37.0685C53.8177 36.9985 54.1676 36.8185 54.5776 36.6585C54.2076 35.9085 53.8777 35.2185 53.5477 34.5385C53.4977 34.4485 53.4277 34.3685 53.2977 34.1985H53.2877ZM46.2877 31.3885C46.5677 31.3885 46.8576 31.3985 47.1376 31.3885C47.9876 31.3385 48.6977 31.0085 49.2177 30.2985C49.5977 29.7885 50.0277 29.3185 50.4277 28.8285C50.6077 28.6085 50.7877 28.3985 50.9477 28.1685C50.9977 28.0985 51.0076 27.9185 50.9576 27.8785C50.8676 27.8085 50.6977 27.7385 50.5977 27.7685C50.1677 27.9085 49.7477 28.1285 49.3177 28.2585C48.7777 28.4185 48.2377 28.5185 47.8077 28.9585C47.6077 29.1585 47.2477 29.2485 46.9377 29.2985C46.3577 29.4085 45.9077 29.7585 45.4277 30.0485C45.1477 30.2085 44.9677 30.4785 44.9477 30.8285C44.9377 31.0985 45.0776 31.3385 45.3376 31.3785C45.6476 31.4185 45.9677 31.4185 46.2877 31.4385V31.3885ZM34.4377 41.7285C34.3577 41.5885 34.2977 41.4185 34.1877 41.2985C33.7277 40.8185 33.1877 40.3885 32.7977 39.8585C32.2577 39.1285 31.3877 39.3485 30.7277 39.0085C30.0977 39.1785 29.4376 39.2985 28.8276 39.7885C29.0276 39.9385 29.1376 40.0785 29.2776 40.1185C30.3276 40.3985 31.1577 41.0585 31.9977 41.7085C32.1877 41.8585 32.3377 42.0685 32.5276 42.2285C32.7776 42.4385 33.0777 42.5785 33.4077 42.4685C33.8077 42.3385 34.2077 42.1885 34.4477 41.7385L34.4377 41.7285ZM83.4277 28.6585C83.3877 28.4285 83.3877 28.3185 83.3477 28.2285C82.9977 27.5285 82.7377 26.7985 82.5977 26.0185C82.5577 25.8085 82.4476 25.6185 82.3876 25.4185C82.2576 24.9785 82.0977 24.5485 82.0077 24.0985C81.8877 23.4785 81.8277 22.8385 81.7377 22.2085C81.6977 21.9585 81.6477 21.7085 81.2377 21.6985C81.2377 23.7585 80.8876 25.7885 80.6376 27.8385C81.1176 28.0785 81.5777 28.0585 82.0276 28.1485C82.4677 28.2385 82.8877 28.4485 83.4377 28.6585H83.4277ZM25.6177 41.2085C25.9177 41.4385 26.0176 41.5485 26.1376 41.5885C26.5676 41.7385 27.0076 41.8885 27.4576 41.9985C28.5576 42.2685 29.6376 42.5785 30.6376 43.1285C30.7276 43.1785 30.8277 43.2185 30.9277 43.2585C31.1477 43.3285 31.3477 43.3185 31.4977 43.1185C31.6477 42.9285 31.6277 42.7085 31.4677 42.5385C31.2977 42.3585 31.1177 42.1885 30.9277 42.0385C30.3577 41.6285 29.7277 41.2885 29.0677 41.0385C28.8377 40.9485 28.5877 40.8785 28.3477 40.8685C27.4977 40.8285 26.6777 40.9785 25.6177 41.2085ZM60.5977 38.0485C61.3677 38.0685 61.9276 37.7885 62.4576 37.4185C63.191 36.9118 63.6476 36.4585 63.8276 36.0585C63.7676 36.0285 63.7076 35.9685 63.6476 35.9785C63.0176 36.0485 62.3877 36.1285 61.7577 36.2185C61.4777 36.2585 61.3477 36.4685 61.2377 36.6985C61.0477 37.1085 60.8577 37.5185 60.6077 38.0585L60.5977 38.0485ZM39.7577 31.6985C40.5277 31.6685 41.3076 31.6385 42.0776 31.5885C42.3576 31.5685 42.6477 31.5285 42.9177 31.4585C43.3477 31.3385 43.4077 31.1785 43.2377 30.4485C42.0577 30.7785 40.9377 31.3285 39.7577 31.6985ZM59.4377 36.7985C58.7877 36.7585 58.2776 36.8885 57.7776 37.0285C57.6676 37.0585 57.5277 37.1985 57.5077 37.2985C57.4877 37.4085 57.5777 37.5685 57.6677 37.6585C57.9777 37.9585 58.3777 38.0585 58.7877 38.1285C59.1177 37.7585 59.3577 37.3885 59.4377 36.8085V36.7985ZM46.8376 32.4585C46.7376 32.3885 46.6877 32.3285 46.6277 32.3185C46.4177 32.2985 46.2077 32.2885 45.9977 32.2985C45.3177 32.3185 45.2377 32.3885 45.0677 33.0585C45.0477 33.1585 45.0677 33.2685 45.0677 33.3585C45.3677 33.6485 45.6777 33.5485 45.9477 33.3785C46.3277 33.1585 46.7776 32.9785 46.8376 32.4485V32.4585Z" fill="#1B1464"/>
<path d="M79.5876 23.3585C79.4476 23.4685 79.3777 23.5785 79.2977 23.5785C79.1177 23.5785 79.0577 23.4385 79.0977 23.2885C79.1177 23.2085 79.2677 23.0785 79.2877 23.0985C79.3877 23.1485 79.4676 23.2585 79.5876 23.3685V23.3585Z" fill="#1B1464"/>
<path d="M5.45764 36.7085L5.24768 36.4885L5.51764 36.2585C5.56764 36.3285 5.67766 36.4085 5.66766 36.4685C5.66766 36.5385 5.54764 36.6085 5.45764 36.6985V36.7085Z" fill="#1B1464"/>
<path d="M58.6677 11.6885C58.6677 11.6885 58.6076 11.7185 58.5776 11.7085C58.5576 11.7085 58.5376 11.6685 58.5176 11.6385L58.6577 11.5885V11.6785L58.6677 11.6885Z" fill="#1B1464"/>
</svg>